<?xml version="1.0" encoding="utf-8"?>
<!-- Generator: Adobe Illustrator 27.5.0, SVG Export Plug-In . SVG Version: 6.00 Build 0)  -->
<svg version="1.1" id="Capa_1" xmlns="http://www.w3.org/2000/svg" xmlns:xlink="http://www.w3.org/1999/xlink" x="0px" y="0px"
	 viewBox="0 0 2339 1925" style="enable-background:new 0 0 2339 1925;" xml:space="preserve">
<g>
	<path style="fill:#3B426E;" d="M2286.595,853.466c-11.16-63.594-33.346-122.96-72.478-159.791
		c-29.856-28.101-65.959-43.307-101.791-41.819l-20.697,0.135c-11.481-15.888-24.419-30.225-38.983-42.573
		c-43.066-36.513-95.044-56.072-146.543-53.763l-82.716,1.066c-20.22-1.827-40.603-0.398-60.578,4.614
		c-32.115,8.06-62.503,24.71-89.843,47.753c-0.23,0.195-0.458,0.395-0.689,0.591c-1.74,1.476-3.472,2.969-5.186,4.497
		c-0.691,0.615-1.374,1.247-2.061,1.872c-1.247,1.132-2.494,2.263-3.726,3.422c-1.11,1.044-2.209,2.109-3.307,3.175
		c-0.797,0.773-1.599,1.537-2.391,2.321c-1.487,1.474-2.96,2.974-4.425,4.486c-0.392,0.405-0.788,0.801-1.177,1.208
		c-1.828,1.907-3.639,3.842-5.43,5.809c-0.025,0.026-0.049,0.052-0.073,0.079c-26.886,29.492-49.674,65.516-66.68,105.399
		c-21.208,49.737-33.946,104.76-38.954,161.236l-725.803,0.55v0.004c-2.263-28.595-6.207-56.991-11.68-84.787
		c-14.724-74.782-45.118-153.765-104.658-204.411c-69.614-59.218-144.708-57.998-229.64-56.883
		c-20.219-1.826-40.599-0.397-60.572,4.615c-32.116,8.06-62.506,24.71-89.847,47.757c-0.224,0.188-0.445,0.383-0.668,0.573
		c-1.747,1.481-3.484,2.98-5.205,4.513c-0.689,0.614-1.371,1.244-2.056,1.867c-1.247,1.133-2.496,2.265-3.73,3.425
		c-1.108,1.043-2.204,2.107-3.301,3.171c-0.8,0.775-1.604,1.542-2.397,2.328c-1.487,1.473-2.958,2.972-4.422,4.484
		c-0.392,0.405-0.789,0.802-1.179,1.209c-1.825,1.905-3.634,3.838-5.423,5.801c-0.027,0.03-0.055,0.058-0.081,0.089
		c-26.885,29.492-49.672,65.514-66.677,105.396c-1.892,4.437-3.706,8.923-5.464,13.442c-7.455,8.607-14.392,18.163-20.694,28.503
		c-4.623,7.585-8.908,15.585-12.813,23.93c-0.782,1.669-1.547,3.351-2.297,5.047c-1.501,3.391-2.939,6.835-4.314,10.327
		c-2.437,6.193-4.682,12.521-6.737,18.963c-0.926,2.9-1.8,5.828-2.649,8.772l-0.002,0.008c-0.26,0.901-0.509,1.808-0.761,2.714
		c-0.001,0.004-0.002,0.008-0.004,0.012c-0.59,2.114-1.161,4.238-1.712,6.372c-0.153,0.593-0.326,1.176-0.476,1.771
		c-0.1,0.393-0.184,0.794-0.282,1.188c-0.622,2.5-1.218,5.013-1.788,7.538c-0.1,0.442-0.214,0.877-0.313,1.32
		c-2.244,10.112-4.075,20.417-5.504,30.849c-0.024,0.176-0.042,0.355-0.066,0.532l-64.204,0.064
		c-0.354-0.024-0.708-0.023-1.063-0.036c-0.41-0.018-0.821-0.037-1.232-0.041c-0.185-0.002-0.371,0.004-0.555,0.006
		c-2.449,0.01-4.897,0.251-7.31,0.766c-13.257,2.826-24.799,12.926-31.382,25.867c-5.838,11.477-7.994,24.931-6.973,38.091
		c0.685,8.83,2.8,17.526,6.194,25.405c4.033,9.362,10.408,17.714,18.741,22.576c5.577,3.255,11.864,4.763,18.176,4.709
		c0.115-0.001,0.23,0.007,0.345,0.007l69.488-0.046c0.113,0.848,0.217,1.7,0.335,2.545c0.285,2.037,0.585,4.068,0.899,6.094
		c0.405,2.636,0.827,5.266,1.278,7.885c0.399,2.316,0.815,4.625,1.25,6.926c0.085,0.453,0.18,0.903,0.267,1.356
		c0.092,0.481,0.201,0.955,0.294,1.434c0.586,2.998,1.193,5.984,1.839,8.952c0.036,0.166,0.067,0.335,0.103,0.501
		c0.603,2.755,1.223,5.502,1.878,8.228c0.601,2.503,1.228,4.991,1.872,7.467c0.511,1.969,1.031,3.932,1.57,5.884
		c0.607,2.202,1.233,4.393,1.874,6.571c0.642,2.179,1.3,4.346,1.976,6.499c0.676,2.154,1.368,4.293,2.077,6.42
		c1.043,3.129,2.151,6.22,3.287,9.292c0.05,0.13,0.098,0.261,0.147,0.393c0.001,0.004,0.003,0.008,0.004,0.011
		c0.74,1.993,1.496,3.974,2.275,5.938c0.227,0.557,0.452,1.115,0.676,1.672c0.004,0.011,0.009,0.022,0.014,0.033
		c0.569,1.407,1.135,2.815,1.723,4.206l0.001,0c0.422,0.998,0.862,1.981,1.294,2.97c0,0.001,0,0.002,0.001,0.002
		c0.688,1.574,1.384,3.139,2.097,4.689c0.353,0.759,0.707,1.515,1.064,2.27c0.004,0.01,0.009,0.019,0.014,0.029
		c0.59,1.251,1.181,2.5,1.789,3.735l0.002,0.003c0.259,0.526,0.525,1.043,0.788,1.564c1.961,3.917,4.003,7.748,6.132,11.474
		c0,0,0.001,0.002,0.002,0.003c0.128,0.224,0.259,0.443,0.388,0.666c0.757,1.315,1.508,2.637,2.286,3.925
		c0.641,1.062,1.29,2.114,1.946,3.158c1.311,2.087,2.651,4.135,4.018,6.144c0.684,1.004,1.374,1.998,2.071,2.982
		c0.23,0.324,0.465,0.64,0.696,0.962c0.113,0.157,0.227,0.313,0.34,0.47c0.359,0.496,0.714,0.997,1.076,1.487
		c0.711,0.963,1.429,1.914,2.154,2.854c0.725,0.94,1.457,1.869,2.195,2.788c1.477,1.835,2.981,3.625,4.512,5.367
		c0.389,0.443,0.786,0.875,1.179,1.311c0.122,0.336,0.236,0.676,0.359,1.011c19.455,53.184,48.202,101.635,84.973,135.866
		c0.245,0.227,0.491,0.452,0.737,0.678c0.947,0.875,1.896,1.747,2.853,2.602c1.169,1.044,2.341,2.081,3.525,3.095
		c0.036,0.031,0.071,0.062,0.107,0.093c6.226,5.36,12.659,10.332,19.31,14.844c33.046,22.422,70.268,32.643,107.559,31.851
		c79.277-0.572,150.541,2.651,218.45-45.799c72.462-51.696,120.014-128.443,141.822-213.665
		c7.344-28.703,12.325-58.258,15.164-88.194l726.833-0.496c5.079,55.015,16.937,108.917,34.96,158.188
		c19.455,53.184,48.201,101.634,84.971,135.864c0.247,0.23,0.497,0.458,0.745,0.687c0.944,0.872,1.889,1.741,2.844,2.593
		c1.172,1.048,2.349,2.087,3.538,3.106c0.031,0.027,0.063,0.055,0.095,0.082c6.226,5.361,12.661,10.334,19.312,14.847
		c33.046,22.421,70.269,32.643,107.559,31.851l116.741-0.842l-0.002-0.34c35.668-2.385,71.106-14.792,102.717-36.24
		c23.075-15.657,44.095-35.76,62.718-59.18l37.305-0.011v-0.26c24.818-1.631,49.507-10.914,71.557-27.117
		c46.878-34.45,81.744-97.777,98.587-168.749C2299.742,1004.094,2299.35,926.152,2286.595,853.466z"/>
	<path style="fill:#474A7C;" d="M693.885,821.122c-16.037-83.307-47.925-161.073-104.171-209.317
		c-36.333-31.164-79.103-50.219-122.625-54.149c-20.219-1.826-40.599-0.397-60.572,4.615c-32.116,8.06-62.506,24.71-89.847,47.757
		c-0.224,0.188-0.445,0.383-0.668,0.573c-1.747,1.481-3.484,2.98-5.205,4.513c-0.689,0.614-1.371,1.244-2.056,1.867
		c-1.247,1.133-2.496,2.265-3.73,3.425c-1.108,1.043-2.204,2.107-3.301,3.171c-0.8,0.775-1.604,1.542-2.397,2.328
		c-1.487,1.473-2.958,2.972-4.422,4.484c-0.392,0.405-0.789,0.802-1.179,1.209c-1.825,1.905-3.634,3.838-5.423,5.801
		c-0.027,0.03-0.055,0.058-0.081,0.089c-26.428,29.035-48.88,64.387-65.766,103.494c-2.159,5.001-4.232,10.057-6.22,15.163
		c-0.052,0.06-0.103,0.121-0.155,0.182c-7.455,8.607-14.392,18.163-20.694,28.503c-4.623,7.585-8.908,15.585-12.813,23.93
		c-0.782,1.669-1.547,3.351-2.297,5.047c-1.501,3.391-2.939,6.835-4.314,10.327c-2.437,6.193-4.682,12.521-6.737,18.963
		c-2.056,6.442-3.923,12.997-5.604,19.648c-0.841,3.326-1.635,6.675-2.384,10.045c-0.866,3.901-1.651,7.838-2.395,11.792
		c-0.561,2.984-1.091,5.982-1.582,8.993c-0.041,0.244-0.083,0.487-0.123,0.731c-0.5,3.1-0.976,6.208-1.404,9.333
		c-0.024,0.176-0.042,0.355-0.066,0.532l-64.204,0.064c-0.354-0.024-0.708-0.023-1.063-0.036c-0.41-0.018-0.821-0.037-1.232-0.041
		c-0.185-0.002-0.371,0.004-0.555,0.006c-2.449,0.01-4.897,0.251-7.31,0.766c-13.257,2.826-24.799,12.926-31.382,25.867
		c-5.838,11.477-7.994,24.931-6.973,38.091c0.685,8.83,2.8,17.526,6.194,25.405c4.033,9.362,10.408,17.714,18.741,22.576
		c5.577,3.255,11.864,4.763,18.176,4.709c0.115-0.001,0.23,0.007,0.345,0.007l69.488-0.046c0.113,0.848,0.217,1.7,0.335,2.545
		c0.285,2.037,0.585,4.068,0.899,6.094c0.001,0.004,0.001,0.008,0.002,0.012c0.404,2.632,0.826,5.258,1.275,7.873
		c0.399,2.316,0.815,4.625,1.25,6.926c1.302,6.902,2.764,13.733,4.381,20.471c2.157,8.985,4.59,17.808,7.291,26.42
		c0.676,2.154,1.368,4.293,2.077,6.42c6.319,18.952,14.357,36.945,23.982,52.877c0.641,1.062,1.29,2.114,1.946,3.158
		c1.311,2.087,2.651,4.135,4.018,6.144c0.684,1.004,1.374,1.998,2.071,2.982c0.697,0.984,1.401,1.957,2.113,2.919
		c0.711,0.963,1.429,1.914,2.154,2.854c0.725,0.94,1.457,1.869,2.195,2.788c1.477,1.835,2.981,3.625,4.512,5.367
		c0.389,0.443,0.786,0.875,1.179,1.311c0.122,0.336,0.236,0.676,0.359,1.011c19.455,53.184,48.202,101.635,84.973,135.866
		c0.245,0.227,0.491,0.452,0.737,0.678c0.947,0.875,1.896,1.747,2.853,2.602c1.169,1.044,2.341,2.081,3.525,3.095
		c0.036,0.031,0.071,0.062,0.107,0.093c5.74,4.912,11.664,9.483,17.766,13.677c67.032,46.072,151.554,41.893,218.943-3.239
		c67.39-45.132,117.514-128.093,141.732-221.067C712.771,1018.443,712.214,916.339,693.885,821.122z"/>
	<path style="fill:#32335B;" d="M368.586,786.955c-17.252-16.237-37.684-25.91-58.373-27.32c-0.079-0.005-0.158-0.013-0.238-0.018
		c-0.667-0.043-1.333-0.074-2-0.099c-0.214-0.008-0.428-0.02-0.642-0.026c-0.594-0.018-1.188-0.026-1.781-0.03
		c-0.29-0.002-0.58-0.006-0.871-0.004c-0.545,0.001-1.09,0.012-1.636,0.026c-0.338,0.008-0.676,0.018-1.015,0.03
		c-0.512,0.02-1.022,0.045-1.534,0.075c-0.376,0.022-0.753,0.048-1.129,0.075c-0.48,0.035-0.959,0.074-1.438,0.119
		c-0.41,0.039-0.821,0.082-1.231,0.127c-0.451,0.049-0.902,0.099-1.353,0.157c-0.445,0.057-0.889,0.122-1.334,0.188
		c-0.418,0.062-0.836,0.121-1.254,0.189c-0.487,0.081-0.974,0.172-1.46,0.261c-0.38,0.07-0.758,0.135-1.136,0.211
		c-0.558,0.112-1.114,0.237-1.67,0.361c-0.309,0.069-0.617,0.131-0.925,0.205c-0.85,0.201-1.698,0.417-2.546,0.65
		c-0.015,0.004-0.031,0.008-0.046,0.011c-6.655,1.833-13.149,4.551-19.424,8.051c-6.274,3.502-12.33,7.787-18.11,12.755
		c-2.89,2.484-5.711,5.138-8.455,7.951c-1.737,1.78-3.441,3.628-5.115,5.532c-5.923,6.734-11.435,14.225-16.469,22.32
		c-0.733,1.18-1.456,2.373-2.169,3.578c-0.613,1.036-1.217,2.082-1.814,3.136c-1.588,2.804-3.12,5.67-4.591,8.596
		c-1.119,2.223-2.203,4.481-3.252,6.769c-1.62,3.533-3.163,7.133-4.608,10.806c-0.003,0.008-0.006,0.015-0.009,0.024
		c-0.893,2.271-1.746,4.569-2.574,6.883c-0.313,0.875-0.608,1.76-0.912,2.64c-0.492,1.426-0.98,2.854-1.448,4.295
		c-0.371,1.14-0.729,2.287-1.085,3.436c-0.352,1.14-0.699,2.284-1.036,3.431c-0.402,1.362-0.797,2.727-1.179,4.101
		c-0.225,0.812-0.439,1.629-0.657,2.445c-2.206,8.244-4.053,16.675-5.545,25.247h0.001l39.78-0.039l85.514-0.085
		c8.78-0.283,17.626,2.598,24.941,7.924c9.587,6.982,15.021,18.236,17.754,30.293c3.122,13.78,3.216,28.557-0.915,42.012
		c-4.13,13.457-12.676,25.464-24.164,31.997c-5.404,3.073-11.454,4.834-17.535,5.144v0.049l-85.482,0.057l-34.39,0.023l-5.388,0.003
		v0.001c1.08,6.446,2.329,12.824,3.748,19.109c0.025,0.108,0.051,0.215,0.075,0.322c0.421,1.857,0.857,3.705,1.307,5.545
		c0.108,0.44,0.219,0.878,0.328,1.317c0.376,1.509,0.76,3.012,1.156,4.508c0.151,0.573,0.303,1.144,0.458,1.714
		c0.37,1.372,0.75,2.738,1.137,4.099c0.175,0.616,0.348,1.233,0.526,1.846c0.398,1.368,0.807,2.727,1.222,4.083
		c0.171,0.56,0.337,1.124,0.511,1.681c0.588,1.885,1.189,3.76,1.809,5.619c0.235,0.705,0.49,1.397,0.73,2.099
		c10.835,31.545,27.632,59.574,49.461,76.038l0.002,0.002c1.159,0.873,2.332,1.699,3.513,2.501c0.343,0.233,0.688,0.457,1.033,0.684
		c0.898,0.591,1.802,1.162,2.712,1.712c0.33,0.2,0.659,0.405,0.99,0.599c1.213,0.711,2.434,1.395,3.665,2.034
		c0.074,0.039,0.15,0.073,0.225,0.112c1.165,0.601,2.34,1.163,3.521,1.7c0.327,0.15,0.654,0.292,0.982,0.436
		c1.02,0.448,2.046,0.873,3.076,1.274c0.261,0.102,0.52,0.209,0.781,0.307c1.31,0.494,2.627,0.957,3.951,1.377
		c0.04,0.012,0.08,0.023,0.12,0.035c1.27,0.401,2.548,0.76,3.828,1.092c0.253,0.065,0.505,0.128,0.758,0.191
		c1.209,0.301,2.422,0.574,3.639,0.815c0.118,0.023,0.235,0.05,0.353,0.073c2.776,0.535,5.568,0.909,8.37,1.136
		c0.147,0.012,0.294,0.023,0.441,0.034c4.263,0.321,8.545,0.288,12.817-0.09l0.145-0.014c15.625-1.411,31.112-7.418,45.002-17.626
		c30.755-22.601,53.629-64.148,64.68-110.71c11.05-46.562,10.794-97.697,2.425-145.383
		C408.814,850.066,394.259,811.119,368.586,786.955z"/>
	<path style="fill:#585C86;" d="M813.673,1005.756c0.655-9.323,1.109-18.674,1.363-28.041c0.008-0.287,0.017-0.573,0.025-0.859
		c0.123-4.754,0.197-9.511,0.22-14.27c0-0.073,0-0.145,0-0.217c0.042-9.68-0.124-19.369-0.487-29.049
		c-0.006-0.156-0.012-0.312-0.018-0.468c-0.372-9.717-0.943-19.427-1.71-29.114c-2.263-28.595-6.207-56.991-11.68-84.787
		c-14.724-74.782-45.118-153.765-104.658-204.411c-69.614-59.218-144.708-57.998-229.64-56.883
		c43.522,3.93,86.293,22.985,122.625,54.149c56.247,48.244,88.134,126.01,104.171,209.317
		c18.329,95.217,18.886,197.32-5.333,290.292c-24.219,92.973-74.343,175.935-141.732,221.067
		c-67.389,45.133-151.911,49.312-218.943,3.239c-6.103-4.194-12.026-8.765-17.766-13.677c6.226,5.36,12.659,10.332,19.31,14.844
		c33.046,22.422,70.268,32.643,107.559,31.851c79.277-0.572,150.541,2.651,218.45-45.799
		c72.462-51.696,120.014-128.443,141.822-213.665c7.345-28.703,12.326-58.26,15.165-88.197c0.438-4.629,0.819-9.268,1.155-13.913
		C813.607,1006.696,813.64,1006.226,813.673,1005.756z"/>
	<path style="fill:#585C86;" d="M570.741,874.144c-9.816-55.931-31.29-122.707-87.255-148.061
		c-9.919-4.493-20.424-7.536-30.932-10.394c-13.81-3.755-88.832-7.235-106.917-7.386c-0.282-0.003-0.552-0.004-0.806-0.005
		c-0.255-0.001-0.497-0.001-0.723,0.001c-1.546,0.006-3.092,0.069-4.638,0.151c-2.76,0.145-5.523,0.373-8.287,0.602
		c-0.803,0.067-1.607,0.131-2.411,0.194c-2.387,0.185-4.775,0.344-7.165,0.407c-0.018,0.001-0.036,0.002-0.055,0.002
		c-1.156,0.03-2.313,0.032-3.469,0.01c-0.1-0.002-0.199,0.003-0.298,0.001c-1.011-0.023-2.022-0.087-3.032-0.162
		c-0.245-0.018-0.491-0.018-0.735-0.039c25.213,2.177,50.042,14.155,71.08,33.956c32.033,30.151,50.196,78.75,59.332,130.81
		c10.442,59.502,10.762,123.307-3.026,181.406c-13.788,58.1-42.33,109.941-80.706,138.142
		c-19.123,14.054-40.67,21.748-62.201,22.371c0.492-0.005,1.012-0.01,1.549-0.013h0.096c0.531-0.004,1.081-0.007,1.654-0.009h0.027
		c1.773-0.006,3.743-0.006,5.884-0.001c0.058,0.001,0.116,0.001,0.174,0.001c2.79,0.007,5.865,0.021,9.169,0.039
		c0.285,0.001,0.574,0.003,0.862,0.004c1.201,0.007,2.434,0.013,3.689,0.02c0.231,0.001,0.459,0.002,0.691,0.004
		c0.258,0.001,0.521,0.003,0.781,0.004c3.55,0.018,7.293,0.037,11.174,0.052c0.089,0,0.179,0,0.269,0
		c0.944,0.004,1.895,0.007,2.853,0.009c34.031,0.1,77.035-0.239,91.946-4.021c26.99-6.847,52.108-20.234,74.015-37.282
		c36.01-28.026,54.139-76.246,64.382-119.407C581.504,997.452,581.184,933.647,570.741,874.144z"/>
	<path style="fill:#32335B;" d="M641.161,846.06c-9.514-50.383-25.944-98.291-51.984-135.938c-0.162-0.235-0.325-0.47-0.488-0.704
		c-2.948-4.229-6.019-8.327-9.216-12.282c-0.279-0.346-0.562-0.687-0.843-1.03c-1.37-1.673-2.762-3.32-4.179-4.94
		c-0.254-0.291-0.504-0.588-0.76-0.876c-1.617-1.828-3.262-3.621-4.94-5.377c-0.307-0.322-0.622-0.634-0.931-0.953
		c-1.376-1.421-2.773-2.817-4.19-4.189c-0.462-0.447-0.923-0.895-1.39-1.337c-1.727-1.637-3.472-3.25-5.259-4.813
		c-42.998-37.6-97.155-53.825-148.035-40.808c-8.895,2.275-17.626,5.381-26.151,9.246c-0.015,0.007-0.031,0.014-0.047,0.022
		c-6.072,2.754-12.039,5.894-17.885,9.392c-0.502,0.3-0.999,0.613-1.499,0.919c-0.668,0.408-1.339,0.811-2.003,1.229
		c-0.311,0.196-0.619,0.4-0.929,0.597c-2.01,1.279-4.008,2.592-5.986,3.953c-0.216,0.148-0.428,0.303-0.642,0.452
		c-0.925,0.642-1.849,1.287-2.767,1.947c-1.077,0.774-2.149,1.564-3.216,2.363c-0.054,0.04-0.108,0.078-0.161,0.118
		c-0.941,0.706-1.876,1.427-2.809,2.152c-0.178,0.138-0.359,0.272-0.536,0.411c-1.976,1.544-3.93,3.135-5.868,4.762
		c-0.24,0.201-0.482,0.396-0.721,0.597c-13.038,11.027-25.231,23.891-36.362,38.228c1.376-0.063,2.751-0.088,4.127-0.091
		c0.054,0,0.108,0,0.161,0.001c0.111,0,0.222,0.002,0.333,0.002h0.006c1.197,0.004,2.394,0.03,3.59,0.078
		c0.16,0.007,0.321,0.013,0.481,0.02c1.319,0.06,2.637,0.143,3.955,0.256h0.002c0.245,0.021,0.49,0.021,0.735,0.039
		c1.01,0.074,2.021,0.139,3.032,0.162c0.099,0.002,0.198-0.003,0.298-0.001c1.157,0.021,2.313,0.02,3.469-0.01
		c0.018,0,0.036-0.002,0.055-0.002c2.39-0.064,4.778-0.222,7.165-0.407c0.804-0.063,1.608-0.128,2.411-0.194
		c2.764-0.229,5.526-0.456,8.287-0.602c1.546-0.082,3.093-0.145,4.638-0.151c0.225-0.002,0.467-0.002,0.723-0.001
		c0.255,0.001,0.524,0.002,0.806,0.005c18.085,0.151,93.107,3.63,106.917,7.386c10.508,2.858,21.013,5.9,30.932,10.394
		c55.965,25.354,77.439,92.13,87.255,148.061c10.442,59.503,10.763,123.308-3.025,181.406
		c-10.243,43.16-28.372,91.381-64.382,119.407c-21.906,17.048-47.024,30.436-74.015,37.282c-14.911,3.782-57.915,4.122-91.946,4.021
		c-0.959-0.003-1.909-0.005-2.853-0.009c-0.09,0-0.18,0-0.269,0c-3.881-0.014-7.623-0.034-11.174-0.052
		c-0.26-0.002-0.524-0.003-0.781-0.004c-0.232-0.002-0.46-0.003-0.691-0.004c-1.255-0.007-2.489-0.013-3.689-0.02
		c-0.289-0.002-0.577-0.003-0.862-0.004c-3.304-0.017-6.379-0.032-9.169-0.039c-0.058,0-0.116,0-0.174-0.001
		c-2.141-0.005-4.111-0.005-5.884,0.001h-0.027c-0.573,0.002-1.124,0.005-1.654,0.009h-0.096c-0.538,0.004-1.058,0.008-1.549,0.013
		h-0.003c-1.523,0.044-3.048,0.052-4.571,0.024h-0.002c0.127,0.186,0.257,0.368,0.385,0.553c0.797,1.163,1.599,2.322,2.411,3.466
		c0.049,0.07,0.099,0.137,0.148,0.206c0.893,1.257,1.794,2.505,2.705,3.739c0.1,0.136,0.203,0.268,0.304,0.404
		c0.862,1.163,1.729,2.319,2.606,3.461c0.133,0.174,0.27,0.342,0.404,0.515c0.849,1.099,1.702,2.193,2.566,3.272
		c0.057,0.07,0.114,0.139,0.172,0.209c0.943,1.175,1.893,2.34,2.852,3.491c0.181,0.216,0.365,0.425,0.546,0.64
		c0.84,0.999,1.682,1.995,2.535,2.974c0.24,0.276,0.486,0.543,0.728,0.818c0.799,0.909,1.6,1.818,2.411,2.71
		c0.198,0.218,0.4,0.427,0.598,0.643c0.86,0.938,1.722,1.874,2.594,2.792c0.478,0.503,0.965,0.992,1.448,1.49
		c0.599,0.617,1.194,1.242,1.799,1.85c0.651,0.654,1.311,1.29,1.968,1.933c0.447,0.437,0.888,0.884,1.338,1.316
		c0.514,0.493,1.037,0.971,1.555,1.458c0.602,0.565,1.198,1.137,1.805,1.692c0.705,0.645,1.419,1.27,2.131,1.901
		c0.428,0.38,0.851,0.769,1.281,1.144c0.536,0.466,1.081,0.917,1.621,1.376c1.772,1.507,3.558,2.985,5.372,4.408
		c2.365,1.856,4.768,3.639,7.205,5.348c8.463,5.93,17.272,10.85,26.319,14.789c48.853,21.267,104.655,13.915,150.601-17.456
		c0.019-0.013,0.037-0.026,0.055-0.039c1.871-1.279,3.723-2.601,5.56-3.953c0.548-0.403,1.088-0.822,1.633-1.231
		c1.333-1,2.659-2.014,3.973-3.052c0.571-0.451,1.137-0.911,1.706-1.368c1.331-1.075,2.655-2.169,3.968-3.28
		c0.473-0.401,0.947-0.802,1.418-1.208c1.546-1.334,3.078-2.693,4.597-4.077c0.211-0.193,0.425-0.38,0.635-0.573
		c42.589-39.112,74.35-98.237,90.982-163.333C656.424,1008.613,655.974,924.5,641.161,846.06z"/>
	<path style="fill:#2C2B50;" d="M317.786,709.667c0.099,0.002,0.198-0.003,0.298-0.001c1.157,0.021,2.313,0.02,3.469-0.01
		c0.018,0,0.036-0.002,0.055-0.002c2.39-0.064,4.778-0.222,7.165-0.407c0.804-0.063,1.608-0.128,2.411-0.194
		c2.764-0.229,5.526-0.455,8.287-0.602c1.546-0.082,3.093-0.145,4.638-0.151c0.225-0.002,0.467-0.002,0.723-0.001
		c0.255,0.001,0.524,0.002,0.806,0.005l0,0c25.136-31.095,55.439-53.53,88.222-62.506c45.66-12.502,94.262,3.087,132.851,39.206
		c11.823,11.067,22.153,24.106,31.158,38.635c-2.769-4.638-5.669-9.144-8.692-13.517c-0.162-0.235-0.325-0.47-0.488-0.704
		c-2.947-4.23-6.02-8.326-9.216-12.282c-0.279-0.346-0.562-0.687-0.843-1.03c-1.37-1.673-2.763-3.32-4.179-4.94
		c-0.254-0.291-0.504-0.588-0.76-0.876c-1.616-1.828-3.263-3.62-4.94-5.377c-0.307-0.322-0.622-0.634-0.931-0.953
		c-1.376-1.421-2.773-2.816-4.19-4.189c-0.462-0.447-0.923-0.895-1.39-1.337c-1.727-1.637-3.472-3.25-5.259-4.813
		c-42.998-37.6-97.155-53.825-148.035-40.808c-8.895,2.275-17.626,5.381-26.151,9.246c-0.015,0.007-0.031,0.014-0.047,0.022
		c-6.072,2.754-12.039,5.894-17.885,9.392c-0.502,0.3-0.999,0.613-1.499,0.919c-0.668,0.408-1.339,0.811-2.003,1.229
		c-0.311,0.196-0.619,0.4-0.929,0.597c-2.01,1.279-4.008,2.592-5.986,3.953c-0.216,0.148-0.428,0.303-0.642,0.452
		c-0.925,0.642-1.849,1.287-2.767,1.947c-1.077,0.774-2.149,1.564-3.216,2.363c-0.054,0.04-0.108,0.078-0.161,0.118
		c-0.941,0.706-1.876,1.427-2.809,2.152c-0.178,0.138-0.359,0.272-0.536,0.411c-1.976,1.544-3.93,3.135-5.868,4.762
		c-0.24,0.201-0.482,0.396-0.721,0.597c-13.038,11.027-25.231,23.891-36.362,38.228l0,0c1.376-0.063,2.751-0.088,4.127-0.091
		c0.054,0,0.108,0,0.161,0.001c0.109,0.001,0.219,0.002,0.329,0.002h0.006c0.002,0,0.003,0,0.004,0
		c1.197,0.004,2.394,0.03,3.59,0.078c0.16,0.007,0.321,0.013,0.481,0.02c1.319,0.06,2.637,0.143,3.955,0.256
		c0.001,0,0.001,0,0.002,0c0.245,0.021,0.49,0.021,0.735,0.039C315.764,709.58,316.776,709.644,317.786,709.667z"/>
	<path style="fill:#2C2B50;" d="M186.522,904.139l39.78-0.039l0,0c3.185-18.299,7.95-35.99,14.442-52.489
		c17.616-44.776,48.512-79.724,84.007-89.496c0.084-0.023,0.168-0.041,0.252-0.064c-4.889-1.264-9.832-2.076-14.79-2.416
		c-0.079-0.005-0.158-0.013-0.238-0.018c-0.667-0.043-1.333-0.073-2-0.099c-0.214-0.008-0.428-0.02-0.642-0.026
		c-0.594-0.019-1.188-0.026-1.781-0.03c-0.29-0.002-0.58-0.006-0.871-0.004c-0.545,0.001-1.09,0.012-1.636,0.026
		c-0.338,0.008-0.676,0.018-1.015,0.03c-0.512,0.02-1.022,0.046-1.534,0.075c-0.376,0.022-0.753,0.048-1.129,0.075
		c-0.48,0.035-0.959,0.074-1.438,0.119c-0.41,0.039-0.821,0.082-1.231,0.127c-0.451,0.049-0.902,0.099-1.353,0.157
		c-0.445,0.057-0.889,0.122-1.334,0.188c-0.418,0.061-0.836,0.121-1.254,0.189c-0.487,0.081-0.974,0.172-1.46,0.261
		c-0.379,0.07-0.758,0.135-1.136,0.211c-0.558,0.112-1.114,0.237-1.67,0.361c-0.309,0.069-0.617,0.131-0.925,0.205
		c-0.85,0.201-1.698,0.417-2.546,0.65c-0.015,0.004-0.031,0.008-0.046,0.011c-6.655,1.833-13.149,4.551-19.424,8.051
		c-6.274,3.502-12.33,7.787-18.11,12.755c-2.89,2.484-5.711,5.138-8.455,7.951c-1.737,1.78-3.441,3.628-5.115,5.532
		c-5.923,6.734-11.435,14.225-16.469,22.32c-0.733,1.18-1.456,2.373-2.169,3.578c-0.613,1.036-1.217,2.082-1.814,3.136
		c-1.588,2.804-3.12,5.67-4.591,8.596c-1.119,2.223-2.203,4.481-3.252,6.769c-1.62,3.533-3.163,7.133-4.608,10.807
		c-0.003,0.008-0.006,0.015-0.009,0.023c-0.893,2.271-1.746,4.569-2.574,6.883c-0.313,0.875-0.609,1.76-0.912,2.64
		c-0.492,1.426-0.98,2.854-1.448,4.295c-0.37,1.14-0.73,2.287-1.085,3.436c-0.352,1.14-0.699,2.284-1.036,3.431
		c-0.401,1.362-0.798,2.727-1.179,4.101c-0.225,0.812-0.439,1.629-0.657,2.445C189.867,887.137,188.014,895.567,186.522,904.139
		L186.522,904.139z"/>
	<path style="fill:#2C2B50;" d="M288.884,1149.471c-22.314-16.83-39.387-45.735-50.191-78.137
		c-5.273-15.816-9.386-32.587-12.277-49.844l-34.39,0.023l-5.388,0.003l0,0v0.001c1.08,6.446,2.331,12.824,3.748,19.109
		c0.025,0.108,0.051,0.215,0.075,0.322c0.421,1.857,0.858,3.705,1.307,5.545c0.108,0.44,0.219,0.878,0.328,1.317
		c0.375,1.509,0.761,3.011,1.156,4.508c0.151,0.573,0.303,1.144,0.458,1.714c0.37,1.373,0.751,2.738,1.137,4.099
		c0.175,0.616,0.348,1.233,0.526,1.846c0.398,1.368,0.807,2.727,1.222,4.083c0.171,0.56,0.337,1.124,0.511,1.681
		c0.588,1.885,1.189,3.76,1.809,5.619c0.235,0.705,0.49,1.397,0.73,2.099c10.835,31.545,27.632,59.574,49.461,76.038
		c0,0.001,0.001,0.002,0.002,0.002c1.159,0.873,2.332,1.699,3.513,2.501c0.343,0.233,0.688,0.457,1.033,0.684
		c0.898,0.591,1.802,1.162,2.712,1.712c0.33,0.2,0.659,0.405,0.99,0.599c1.213,0.711,2.434,1.395,3.665,2.034
		c0.074,0.039,0.15,0.073,0.225,0.112c1.165,0.6,2.34,1.164,3.521,1.7c0.327,0.15,0.654,0.292,0.982,0.436
		c1.02,0.448,2.046,0.874,3.076,1.274c0.261,0.102,0.52,0.209,0.781,0.307c1.31,0.494,2.627,0.958,3.951,1.377
		c0.04,0.012,0.08,0.023,0.12,0.035c1.27,0.4,2.548,0.76,3.828,1.092c0.253,0.065,0.505,0.128,0.758,0.191
		c1.209,0.3,2.422,0.574,3.639,0.815c0.118,0.023,0.235,0.05,0.353,0.073c2.775,0.535,5.568,0.91,8.37,1.136
		c0.147,0.012,0.294,0.023,0.441,0.034c4.262,0.319,8.545,0.289,12.817-0.09c0.048-0.004,0.097-0.009,0.145-0.014
		c4.349-0.393,8.689-1.142,12.985-2.241C307.226,1160.69,297.721,1156.136,288.884,1149.471z"/>
	<path style="fill:#474A7C;" d="M2286.595,853.466c-11.16-63.594-33.346-122.96-72.478-159.791
		c-29.856-28.101-65.959-43.307-101.791-41.819l-20.697,0.135c-11.481-15.888-24.419-30.225-38.983-42.573
		c-43.066-36.513-95.044-56.072-146.543-53.763l-82.716,1.066c-20.22-1.827-40.603-0.398-60.578,4.614
		c-32.115,8.06-62.503,24.71-89.843,47.753c-0.23,0.195-0.458,0.395-0.689,0.591c-1.74,1.476-3.472,2.969-5.186,4.497
		c-0.691,0.615-1.374,1.247-2.061,1.872c-1.247,1.132-2.494,2.263-3.726,3.422c-1.11,1.044-2.209,2.109-3.307,3.175
		c-0.797,0.773-1.599,1.537-2.391,2.321c-1.487,1.474-2.96,2.974-4.425,4.486c-0.392,0.405-0.788,0.801-1.177,1.208
		c-1.828,1.907-3.639,3.842-5.43,5.809c-0.025,0.026-0.049,0.052-0.073,0.079c-26.428,29.035-48.882,64.389-65.768,103.496
		c-21.687,50.225-34.698,105.936-39.807,163.139l46.417-0.035l43.621-0.034l143.805-0.109c8.78-0.283,17.626,2.598,24.941,7.925
		c9.588,6.981,15.021,18.235,17.754,30.291c3.123,13.78,3.216,28.557-0.914,42.013c-4.13,13.456-12.676,25.464-24.164,31.996
		c-5.404,3.073-11.454,4.834-17.535,5.144v0.05l-143.634,0.098l-43.587,0.029l-46.379,0.033
		c5.079,55.015,16.937,108.917,34.96,158.188c19.455,53.184,48.201,101.634,84.971,135.864c0.247,0.23,0.497,0.458,0.745,0.687
		c0.944,0.872,1.889,1.741,2.844,2.593c1.172,1.048,2.349,2.087,3.538,3.106c0.031,0.027,0.063,0.055,0.095,0.082
		c6.226,5.361,12.661,10.334,19.312,14.847c33.046,22.421,70.269,32.643,107.559,31.851l116.741-0.842l-0.002-0.34
		c35.668-2.385,71.106-14.792,102.717-36.24c23.075-15.657,44.095-35.76,62.718-59.18l37.305-0.011v-0.26
		c24.818-1.631,49.507-10.914,71.557-27.117c46.878-34.45,81.744-97.777,98.587-168.749
		C2299.742,1004.094,2299.35,926.152,2286.595,853.466z"/>
	<path style="fill:#32335B;" d="M1997.456,845.124c-9.514-50.383-25.944-98.292-51.984-135.938c-0.163-0.235-0.324-0.47-0.487-0.703
		c-2.949-4.229-6.019-8.327-9.217-12.284c-0.278-0.344-0.561-0.684-0.84-1.027c-1.372-1.675-2.766-3.325-4.185-4.947
		c-0.252-0.289-0.5-0.583-0.754-0.87c-1.618-1.828-3.264-3.623-4.942-5.38c-0.306-0.32-0.62-0.632-0.928-0.95
		c-1.376-1.422-2.774-2.817-4.191-4.189c-0.463-0.448-0.924-0.897-1.391-1.339c-1.726-1.636-3.472-3.249-5.258-4.811l-0.001-0.001
		c-5.797-5.069-11.803-9.736-17.972-14.009c-23.852-16.525-50.203-26.965-77.019-30.176c-6.428-0.77-12.883-1.124-19.336-1.05
		c-6.453,0.075-12.904,0.581-19.325,1.531c-4.815,0.713-9.614,1.676-14.384,2.896c-5.892,1.508-11.712,3.379-17.448,5.594
		c-3.824,1.476-7.61,3.104-11.356,4.88c-3.745,1.775-7.449,3.697-11.108,5.758c-3.659,2.061-7.274,4.264-10.839,6.6
		c-1.783,1.167-3.554,2.369-5.312,3.604c-10.548,7.404-20.641,15.989-30.177,25.584c-1.589,1.599-3.163,3.227-4.721,4.882
		c-6.233,6.619-12.21,13.675-17.902,21.12c-2.846,3.722-5.621,7.542-8.322,11.452c-6.52,9.441-12.594,19.422-18.188,29.836
		c-1.355,2.525-2.691,5.067-3.989,7.642c-3.325,6.601-6.456,13.363-9.381,20.268c-4.034,9.524-7.685,19.294-10.984,29.257
		c-1.154,3.485-2.265,6.995-3.331,10.527c-1.591,5.277-3.085,10.603-4.481,15.976c-0.292,1.125-0.581,2.253-0.864,3.383
		c-0.846,3.364-1.654,6.746-2.424,10.143c-1.738,7.667-3.285,15.413-4.642,23.225c-0.637,3.669-1.234,7.351-1.788,11.045
		c-0.119,0.792-0.237,1.586-0.352,2.379c-0.563,3.883-1.082,7.779-1.554,11.686c-0.258,2.14-0.502,4.283-0.734,6.43l43.621-0.034
		l143.805-0.109c8.78-0.283,17.626,2.598,24.941,7.925c9.588,6.981,15.021,18.235,17.754,30.291
		c3.123,13.78,3.216,28.557-0.914,42.013c-4.13,13.456-12.676,25.464-24.164,31.996c-5.404,3.073-11.454,4.834-17.535,5.144v0.05
		l-143.634,0.098l-43.587,0.029c0.811,7.413,1.75,14.798,2.852,22.137c1.391,9.262,3.013,18.458,4.861,27.557
		c1.232,6.066,2.564,12.09,3.995,18.064c0.715,2.988,1.455,5.962,2.22,8.922c2.294,8.885,4.809,17.646,7.541,26.263
		c1.821,5.744,3.737,11.423,5.75,17.03c1.195,3.331,2.434,6.64,3.715,9.922c1.282,3.282,2.606,6.54,3.973,9.767
		c2.734,6.455,5.638,12.793,8.708,18.985c6.141,12.385,12.947,24.19,20.389,35.193c2.791,4.127,5.672,8.141,8.64,12.031
		c1.979,2.593,3.997,5.131,6.054,7.61c2.057,2.479,4.152,4.9,6.286,7.258c5.335,5.897,10.909,11.406,16.714,16.472
		c2.323,2.026,4.682,3.982,7.078,5.864c2.396,1.882,4.829,3.689,7.298,5.42c10.156,7.116,20.81,12.778,31.775,17.034
		c7.31,2.837,14.76,5.051,22.293,6.654c3.767,0.802,7.554,1.452,11.357,1.951c3.802,0.499,7.618,0.848,11.442,1.048
		c1.912,0.099,3.825,0.162,5.74,0.188c32.548,0.44,65.385-9.79,94.313-29.542c0.01-0.006,0.019-0.013,0.027-0.019
		c1.882-1.285,3.742-2.615,5.59-3.974c0.546-0.401,1.085-0.819,1.627-1.227c1.334-1.001,2.661-2.016,3.977-3.055
		c0.57-0.45,1.137-0.909,1.704-1.366c1.333-1.076,2.656-2.17,3.97-3.283c0.472-0.401,0.946-0.8,1.416-1.207
		c1.546-1.333,3.078-2.692,4.597-4.076c0.211-0.193,0.425-0.38,0.635-0.574c7.411-6.805,14.488-14.222,21.219-22.166
		c0.001,0,0.001,0,0.001,0l0,0c31.956-37.711,56.023-87.398,69.761-141.167C2012.719,1007.677,2012.268,923.564,1997.456,845.124z"
		/>
	<path style="fill:#32335B;" d="M112.513,912.094c-6.534-4.759-14.29-7.553-22.13-7.896c-0.41-0.018-0.821-0.037-1.232-0.041
		c-0.185-0.002-0.371,0.004-0.555,0.006c-2.449,0.01-4.897,0.251-7.31,0.766c-13.257,2.826-24.799,12.926-31.382,25.867
		c-5.838,11.477-7.994,24.931-6.973,38.091c0.685,8.83,2.8,17.526,6.194,25.405c4.033,9.362,10.408,17.714,18.741,22.576
		c5.577,3.255,11.864,4.763,18.176,4.709c6.62-0.058,13.265-1.837,19.146-5.181c11.488-6.533,20.033-18.541,24.164-31.996
		c4.129-13.456,4.036-28.233,0.913-42.013C127.535,930.33,122.1,919.075,112.513,912.094z"/>
	<path style="fill:#32335B;" d="M2214.117,693.675c-29.856-28.101-65.959-43.307-101.791-41.819l-20.697,0.135
		c33.017,45.688,53.897,104.295,66.051,166.024c18.723,95.088,19.701,197.186-4.133,290.325
		c-15.649,61.157-42.487,118.075-78.098,162.862l37.305-0.011v-0.26c24.818-1.631,49.507-10.914,71.557-27.117
		c46.878-34.45,81.744-97.777,98.587-168.749c16.843-70.971,16.451-148.912,3.696-221.598
		C2275.434,789.872,2253.248,730.506,2214.117,693.675z"/>
	<path style="fill:#32335B;" d="M1652.767,1005.702c23.379-0.092,46.758-0.188,70.137-0.289c11.022-0.047,22.071,0.125,33.091-0.145
		c0.476-0.012,0.953-0.004,1.43-0.007c3.648-0.017,3.655-5.688,0-5.67c-7.597,0.035-15.193,0.069-22.789,0.101
		c-20.67,0.091-41.34,0.177-62.01,0.26c-30.745,0.124-61.49,0.243-92.234,0.354c-37.821,0.137-75.642,0.265-113.463,0.381
		c-41.898,0.129-83.796,0.246-125.694,0.345c-43.135,0.102-86.27,0.186-129.404,0.244c-41.044,0.055-82.088,0.086-123.131,0.076
		c-36.114-0.009-72.227-0.047-108.34-0.156c-28.184-0.084-56.369-0.201-84.553-0.453c-17.255-0.154-34.521-0.27-51.77-0.813
		c-2.222-0.07-4.444-0.15-6.664-0.263c-3.648-0.185-3.638,5.485,0,5.67c14.171,0.722,28.394,0.751,42.579,0.915
		c25.818,0.299,51.637,0.431,77.456,0.534c34.473,0.137,68.944,0.195,103.417,0.221c40.127,0.031,80.254,0.015,120.381-0.025
		c42.783-0.044,85.567-0.116,128.35-0.208c42.594-0.092,85.188-0.202,127.781-0.327c39.081-0.114,78.162-0.241,117.242-0.378
		C1587.308,1005.953,1620.037,1005.831,1652.767,1005.702z"/>
	<path style="fill:#585C86;" d="M2157.68,818.015c-12.154-61.729-33.034-120.336-66.051-166.024
		c-11.481-15.888-24.419-30.225-38.983-42.573c-43.066-36.513-95.044-56.072-146.543-53.763l-82.716,1.066
		c43.52,3.932,86.289,22.986,122.62,54.148c56.246,48.244,88.134,126.011,104.171,209.318
		c18.33,95.216,18.886,197.319-5.332,290.293c-24.218,92.972-74.343,175.934-141.733,221.066
		c-67.389,45.132-151.911,49.312-218.943,3.24c-6.103-4.195-12.028-8.766-17.769-13.679c6.226,5.361,12.661,10.334,19.312,14.847
		c33.046,22.421,70.269,32.643,107.559,31.851l116.741-0.842l-0.002-0.34c35.668-2.385,71.106-14.792,102.717-36.24
		c23.075-15.657,44.095-35.76,62.718-59.18c35.611-44.787,62.448-101.704,78.098-162.862
		C2177.381,1015.201,2176.403,913.103,2157.68,818.015z"/>
	<path style="fill:#2C2B50;" d="M1891.934,1254.36c-48.867,35.713-110.159,39.016-158.771,2.554
		c-35.454-26.593-62.582-72.263-79.747-123.461c-11.844-35.326-20.024-73.658-24.2-112.929l-43.587,0.029
		c0.811,7.413,1.75,14.798,2.852,22.137c1.391,9.262,3.013,18.458,4.861,27.557c1.232,6.066,2.564,12.09,3.995,18.064
		c0.715,2.988,1.455,5.962,2.22,8.922c2.294,8.885,4.809,17.646,7.541,26.263c1.821,5.744,3.737,11.423,5.75,17.029
		c1.195,3.331,2.434,6.641,3.715,9.923c1.282,3.282,2.606,6.54,3.973,9.767c2.734,6.455,5.638,12.793,8.708,18.985
		c6.141,12.385,12.947,24.19,20.389,35.193c2.791,4.127,5.672,8.141,8.64,12.031c1.979,2.593,3.997,5.131,6.054,7.61
		c2.057,2.479,4.152,4.9,6.286,7.258c5.335,5.897,10.909,11.406,16.714,16.472c2.323,2.026,4.682,3.982,7.078,5.864
		c2.396,1.882,4.829,3.689,7.298,5.42c10.156,7.116,20.81,12.778,31.775,17.034c7.31,2.837,14.76,5.051,22.293,6.654
		c3.767,0.802,7.554,1.452,11.357,1.951c3.802,0.499,7.618,0.848,11.442,1.048c1.912,0.099,3.826,0.162,5.74,0.188
		c32.548,0.44,65.385-9.79,94.313-29.542c0.01-0.006,0.019-0.013,0.027-0.019c1.882-1.285,3.742-2.615,5.59-3.974
		c0.546-0.401,1.085-0.819,1.627-1.227c1.334-1.001,2.662-2.015,3.977-3.055c0.57-0.45,1.137-0.909,1.704-1.366
		c1.333-1.077,2.657-2.169,3.97-3.283c0.472-0.401,0.946-0.8,1.416-1.207c1.545-1.333,3.078-2.691,4.597-4.076
		c0.211-0.193,0.425-0.38,0.635-0.574c7.407-6.809,14.488-14.222,21.219-22.166c0.001,0,0.001,0,0.001,0l0,0
		C1913.605,1236.46,1903.101,1246.2,1891.934,1254.36z"/>
	<path style="fill:#2C2B50;" d="M1628.964,903.115c4.316-40.953,13.409-80.694,27.712-116.843
		c27.991-70.748,77.081-125.969,133.478-141.41c45.66-12.502,94.262,3.086,132.852,39.206
		c11.823,11.066,22.153,24.106,31.158,38.635c-2.77-4.638-5.669-9.144-8.693-13.517c-0.163-0.235-0.324-0.47-0.487-0.703
		c-2.948-4.23-6.02-8.327-9.217-12.284c-0.278-0.344-0.561-0.684-0.84-1.027c-1.372-1.675-2.767-3.325-4.185-4.947
		c-0.252-0.289-0.5-0.583-0.754-0.87c-1.617-1.829-3.265-3.622-4.942-5.38c-0.306-0.32-0.62-0.632-0.928-0.95
		c-1.376-1.422-2.774-2.817-4.191-4.189c-0.463-0.448-0.924-0.897-1.391-1.339c-1.726-1.636-3.472-3.249-5.258-4.811l-0.001-0.001
		c-5.797-5.069-11.803-9.736-17.972-14.009c-23.852-16.525-50.203-26.965-77.019-30.176c-6.428-0.77-12.883-1.124-19.336-1.05
		c-6.453,0.075-12.904,0.581-19.325,1.531c-4.815,0.713-9.614,1.676-14.384,2.896c-5.892,1.508-11.712,3.379-17.448,5.594
		c-3.824,1.476-7.61,3.104-11.356,4.88c-3.745,1.775-7.449,3.697-11.108,5.758c-3.659,2.061-7.274,4.264-10.839,6.6
		c-1.783,1.167-3.554,2.369-5.312,3.604c-10.548,7.404-20.641,15.989-30.177,25.584c-1.589,1.599-3.163,3.227-4.721,4.882
		c-6.233,6.619-12.21,13.675-17.902,21.12c-2.846,3.722-5.621,7.542-8.322,11.452c-6.52,9.441-12.594,19.422-18.188,29.836
		c-1.355,2.525-2.691,5.067-3.989,7.642c-3.325,6.601-6.456,13.363-9.381,20.268c-4.034,9.524-7.685,19.294-10.984,29.257
		c-1.154,3.485-2.265,6.994-3.331,10.527c-1.591,5.277-3.085,10.603-4.481,15.976c-0.292,1.125-0.581,2.253-0.864,3.383
		c-0.846,3.364-1.654,6.746-2.424,10.143c-1.738,7.667-3.285,15.413-4.642,23.225c-0.637,3.669-1.234,7.351-1.788,11.045
		c-0.119,0.792-0.237,1.585-0.352,2.379c-0.563,3.883-1.082,7.779-1.554,11.686c-0.258,2.14-0.502,4.283-0.734,6.43
		L1628.964,903.115z"/>
	<path style="fill:#585C86;" d="M310.396,719.878c-32.161-3.466-61.841,14.473-82.832,37.401
		c-21.179,23.133-36.993,51.497-47.673,80.876c-6.073,16.707-10.413,34.019-12.977,51.609c-0.223,1.525,0.378,3.029,1.98,3.488
		c1.331,0.38,3.266-0.467,3.488-1.981c4.437-30.43,14.214-60.032,29.017-86.998c14.327-26.099,33.394-52.107,59.601-67.262
		c14.918-8.627,32.13-13.325,49.396-11.464c1.525,0.164,2.835-1.421,2.835-2.835C313.231,721.042,311.925,720.042,310.396,719.878z"
		/>
	<path style="fill:#585C86;" d="M259.467,706.115c11.245-21.147,25.079-40.9,41.385-58.457
		c16.211-17.453,34.789-32.715,55.419-44.665c20.625-11.946,43.147-20.424,66.674-24.396c23.402-3.95,47.684-3.496,70.885,1.53
		c23.106,5.005,45.181,14.583,64.109,28.823c2.279,1.716,4.492,3.514,6.665,5.361c2.764,2.351,6.794-1.641,4.009-4.01
		c-18.606-15.827-40.725-27.067-64.272-33.451c-23.548-6.384-48.4-8.049-72.614-5.189c-24.39,2.88-47.908,10.348-69.68,21.686
		c-21.698,11.299-41.461,26.259-58.722,43.563c-17.312,17.355-32.225,37.144-44.389,58.416c-1.497,2.618-2.95,5.261-4.366,7.924
		C252.858,706.473,257.751,709.341,259.467,706.115z"/>
	<path style="fill:#585C86;" d="M1860.635,575.917c-23.548-6.384-48.399-8.048-72.614-5.19c-24.39,2.879-47.908,10.349-69.68,21.686
		c-21.699,11.3-41.461,26.26-58.722,43.564c-17.312,17.355-32.224,37.144-44.388,58.416c-1.498,2.618-2.95,5.261-4.366,7.924
		c-1.712,3.22,3.181,6.088,4.896,2.862c11.245-21.146,25.078-40.9,41.385-58.457c16.211-17.453,34.789-32.714,55.419-44.664
		c20.625-11.946,43.147-20.424,66.675-24.396c23.402-3.95,47.684-3.496,70.885,1.529c23.105,5.005,45.181,14.584,64.108,28.825
		c2.279,1.715,4.493,3.513,6.665,5.361c2.764,2.351,6.794-1.641,4.009-4.01C1906.302,593.541,1884.183,582.3,1860.635,575.917z"/>
	<path style="fill:#474A7C;" d="M1554.578,926.684c32.729-0.114,65.459-0.237,98.189-0.366c23.379-0.092,46.758-0.188,70.137-0.288
		c11.022-0.047,22.071,0.124,33.091-0.146c0.476-0.011,0.953-0.004,1.43-0.007c3.648-0.017,3.655-5.687,0-5.67
		c-7.597,0.035-15.193,0.069-22.789,0.101c-20.67,0.091-41.34,0.177-62.01,0.26c-30.745,0.124-61.49,0.242-92.234,0.354
		c-37.821,0.136-75.642,0.264-113.463,0.381c-41.898,0.129-83.796,0.246-125.694,0.345c-43.135,0.102-86.27,0.187-129.404,0.244
		c-41.044,0.055-82.088,0.086-123.131,0.076c-36.114-0.009-72.227-0.047-108.34-0.156c-28.184-0.084-56.369-0.201-84.553-0.453
		c-17.255-0.154-34.521-0.27-51.77-0.813c-2.222-0.07-4.444-0.15-6.664-0.263c-3.648-0.185-3.638,5.485,0,5.67
		c14.171,0.722,28.394,0.751,42.579,0.915c25.818,0.299,51.637,0.431,77.456,0.534c34.473,0.138,68.944,0.195,103.417,0.222
		c40.127,0.031,80.254,0.015,120.381-0.026c42.783-0.043,85.567-0.116,128.35-0.208c42.594-0.091,85.188-0.202,127.781-0.327
		C1476.417,926.948,1515.497,926.821,1554.578,926.684z"/>
	<path style="fill:#757DA8;" d="M2106.698,715.823c-16.811-34.185-38.986-66.272-67.258-91.99
		c-28.618-26.034-63.481-44.834-101.607-52.203c-4.957-0.958-9.947-1.711-14.957-2.324c-3.613-0.443-3.582,5.232,0,5.67
		c38.288,4.691,74.213,20.857,103.899,45.362c29.038,23.969,51.958,54.637,69.598,87.745
		c17.666,33.156,29.949,68.831,37.819,105.519c10.204,47.565,14.134,96.44,13.052,145.041
		c-1.127,50.649-7.782,101.244-20.46,150.311c-1.584,6.129-3.267,12.231-5.039,18.307c-1.023,3.511,4.447,5.009,5.468,1.508
		c14.417-49.451,22.569-100.712,25.065-152.142c2.417-49.81-0.458-100.02-9.534-149.082
		C2135.587,788.858,2124.084,751.179,2106.698,715.823z"/>
	<path style="fill:#585C86;" d="M2262.306,876.176c-4.325-28.421-10.475-56.685-20.132-83.803
		c-9.468-26.586-22.358-51.973-39.859-74.198c-17.177-21.815-40.088-43.02-68.335-48.189c-3.481-0.637-7.005-1.025-10.541-1.156
		c-3.65-0.134-3.644,5.536,0,5.67c28.385,1.046,52.003,20.648,69.624,41.29c17.894,20.961,31.286,45.51,41.096,71.186
		c9.993,26.154,16.515,53.533,21.144,81.108c5.077,30.242,8.347,60.956,9.501,91.601c1.23,32.624-0.406,65.528-7.56,97.46
		c-0.876,3.91-1.838,7.8-2.874,11.671c-0.944,3.529,4.524,5.035,5.468,1.507c8.615-32.209,11.467-65.686,10.949-98.95
		C2270.293,939.536,2267.095,907.643,2262.306,876.176z"/>
	<path style="fill:#2C2B50;" d="M567.095,1226.371c-9.784,11.025-20.289,20.765-31.456,28.926
		c-48.867,35.712-110.158,39.015-158.771,2.554c-14.591-10.945-27.769-25.126-39.426-41.589c-0.024,0-0.046,0-0.07,0
		c-0.959-0.003-1.909-0.005-2.853-0.009c-0.09,0-0.179,0-0.269,0c-3.881-0.014-7.623-0.034-11.174-0.052
		c-0.262-0.002-0.521-0.003-0.781-0.004c-0.232-0.002-0.46-0.003-0.691-0.004c-1.255-0.007-2.488-0.013-3.689-0.02
		c-0.289-0.002-0.577-0.003-0.862-0.004c-3.303-0.017-6.38-0.032-9.169-0.039c-0.058,0-0.116,0-0.174-0.001
		c-2.14-0.005-4.111-0.005-5.884,0.001c-0.009,0-0.018,0-0.027,0c-0.573,0.002-1.124,0.005-1.654,0.009c-0.032,0-0.064,0-0.096,0
		c-0.539,0.004-1.057,0.008-1.549,0.013h-0.003c-1.523,0.044-3.048,0.052-4.571,0.024h-0.002l0,0
		c0.127,0.186,0.257,0.368,0.385,0.553c0.797,1.163,1.599,2.322,2.411,3.466c0.049,0.07,0.099,0.137,0.148,0.206
		c0.893,1.257,1.794,2.505,2.705,3.739c0.1,0.136,0.203,0.268,0.304,0.404c0.862,1.163,1.729,2.319,2.606,3.461
		c0.133,0.174,0.27,0.342,0.404,0.515c0.849,1.099,1.702,2.193,2.566,3.272c0.057,0.07,0.114,0.139,0.172,0.209
		c0.943,1.175,1.893,2.34,2.852,3.491c0.181,0.216,0.365,0.425,0.546,0.64c0.84,0.999,1.682,1.995,2.535,2.974
		c0.24,0.276,0.486,0.543,0.728,0.818c0.799,0.909,1.6,1.818,2.411,2.71c0.198,0.218,0.4,0.427,0.598,0.643
		c0.86,0.938,1.722,1.874,2.594,2.792c0.478,0.503,0.965,0.992,1.448,1.49c0.599,0.617,1.194,1.242,1.799,1.85
		c0.651,0.654,1.311,1.29,1.968,1.933c0.447,0.437,0.888,0.884,1.338,1.316c0.514,0.493,1.037,0.971,1.555,1.458
		c0.602,0.565,1.198,1.137,1.805,1.692c0.705,0.645,1.419,1.27,2.131,1.901c0.428,0.38,0.851,0.769,1.281,1.144
		c0.536,0.466,1.081,0.917,1.621,1.376c1.772,1.507,3.558,2.985,5.372,4.408c2.365,1.856,4.768,3.639,7.205,5.348
		c8.463,5.93,17.272,10.85,26.319,14.789c48.853,21.267,104.655,13.915,150.601-17.456c0.019-0.013,0.037-0.026,0.055-0.039
		c1.871-1.279,3.723-2.601,5.56-3.953c0.548-0.403,1.088-0.822,1.633-1.231c1.333-1.001,2.659-2.014,3.973-3.052
		c0.571-0.451,1.137-0.911,1.706-1.368c1.331-1.076,2.655-2.167,3.968-3.28c0.473-0.401,0.947-0.802,1.418-1.208
		c1.545-1.334,3.078-2.692,4.597-4.077c0.211-0.193,0.425-0.38,0.635-0.573C553.282,1241.728,560.363,1234.315,567.095,1226.371z"/>
	<path style="fill:#32335B;" d="M321.346,1004.979c-2.877,0-30.356-0.02-45.534-0.068c-27.214-0.084-54.429-0.201-81.644-0.453
		c-16.661-0.154-33.333-0.271-49.988-0.813c-2.146-0.07-4.291-0.15-6.435-0.263c-3.522-0.185-3.512,5.484,0,5.67
		c13.684,0.722,27.417,0.751,41.114,0.916c24.93,0.299,49.861,0.431,74.791,0.534c22.566,0.092,63.68,0.15,67.696,0.15
		C325.363,1010.652,327.012,1004.979,321.346,1004.979z"/>
	<path style="fill:#585C86;" d="M318.469,914.446c-5.472,0-27.479-0.02-42.657-0.068c-27.214-0.084-54.429-0.201-81.644-0.453
		c-16.661-0.154-33.333-0.271-49.988-0.813c-2.146-0.07-4.291-0.15-6.435-0.263c-3.522-0.185-3.512,5.486,0,5.671
		c13.684,0.722,27.417,0.75,41.114,0.915c24.93,0.299,49.861,0.431,74.791,0.534c22.566,0.092,64.229,0.15,67.696,0.15
		C324.813,920.12,323.941,914.446,318.469,914.446z"/>
</g>
</svg>
